Coordinates
version=1
nRows=9
nColumns=63
inDegrees=yes

Units are S.I. units (second, meters, Newtons, ...)
If the header above contains a line with 'inDegrees', this indicates whether rotational values are in degrees (yes) or radians (no).

endheader
time	pelvis_tilt	pelvis_list	pelvis_rotation	pelvis_tx	pelvis_ty	pelvis_tz	hip_flexion_r	hip_adduction_r	hip_rotation_r	knee_angle_r	knee_angle_r_beta	ankle_angle_r	subtalar_angle_r	mtp_angle_r	hip_flexion_l	hip_adduction_l	hip_rotation_l	knee_angle_l	knee_angle_l_beta	ankle_angle_l	subtalar_angle_l	mtp_angle_l	L5_S1_Flex_Ext	L5_S1_Lat_Bending	L5_S1_axial_rotation	L4_L5_Flex_Ext	L4_L5_Lat_Bending	L4_L5_axial_rotation	L3_L4_Flex_Ext	L3_L4_Lat_Bending	L3_L4_axial_rotation	L2_L3_Flex_Ext	L2_L3_Lat_Bending	L2_L3_axial_rotation	L1_L2_Flex_Ext	L1_L2_Lat_Bending	L1_L2_axial_rotation	L1_T12_Flex_Ext	L1_T12_Lat_Bending	L1_T12_axial_rotation	Abs_r3	Abs_r2	Abs_r1	Abs_t1	Abs_t2	neck_flexion	neck_bending	neck_rotation	arm_flex_r	arm_add_r	arm_rot_r	elbow_flex_r	pro_sup_r	wrist_flex_r	wrist_dev_r	arm_flex_l	arm_add_l	arm_rot_l	elbow_flex_l	pro_sup_l	wrist_flex_l	wrist_dev_l
      0.43333333	    -22.17471807	      5.55811807	    -98.97900730	     -0.06364732	      0.95863971	     -1.10566313	     22.22088014	     -5.27446568	    -24.89062056	     55.32240042	      0.96555804	     10.59085054	     14.25016401	      0.00000000	     31.10057092	    -19.72198545	     11.81547785	     54.82336000	      0.95684814	     16.12995070	    -19.58165334	      0.00000000	     -0.00770326	     -0.92380753	      0.66446829	     -0.01430572	     -1.22866402	      0.70599756	     -0.01265568	     -2.24614563	      0.70599756	     -0.00880405	     -2.24614563	      0.58140976	     -0.00715325	     -1.88382832	      0.53988049	     -0.00440164	     -1.43097787	      0.49835122	     -0.05502360	    -10.45029556	      3.69557330	      0.00000000	      0.00000000	    -15.41692324	     13.58027526	     -1.92484207	    -17.86861001	    -37.06887820	    -61.94656474	     90.73307533	     89.99559364	      0.00000000	      0.00000000	     -4.44250614	    -39.82985078	      9.83499281	     25.58845483	     89.99559364	      0.00000000	      0.00000000
      0.45000000	    -22.17216342	      5.49991355	   -100.65365042	     -0.06753842	      0.95877855	     -1.09747133	     23.28423378	     -6.45249074	    -22.43462418	     53.00804784	      0.92516496	      8.76366966	     14.75849186	      0.00000000	     30.00432708	    -20.65991141	     10.30961034	     55.29312556	      0.96504709	     16.25113858	    -19.54950534	      0.00000000	     -0.01007709	     -1.05186608	      1.22193929	     -0.01871416	     -1.39898189	      1.29831049	     -0.01655565	     -2.55750720	      1.29831049	     -0.01151710	     -2.55750720	      1.06919688	     -0.00935758	     -2.14496532	      0.99282567	     -0.00575805	     -1.62934056	      0.91645447	     -0.07197962	    -11.89891952	      6.79605974	      0.00000000	      0.00000000	    -14.15942360	     13.80116061	     -6.48167502	    -21.40486836	    -36.42667071	    -65.72218421	     90.73799293	     89.99559364	      0.00000000	      0.00000000	     -3.22891759	    -39.57988040	      4.27019887	     26.66781997	     89.99559364	      0.00000000	      0.00000000
      0.46666667	    -22.71505686	      5.49171979	   -100.27632835	     -0.06910399	      0.95808340	     -1.08825466	     23.49075818	     -7.83773543	    -22.17200626	     50.33115894	      0.87844444	      7.27827935	     15.64693286	      0.00000000	     29.54918090	    -21.08342536	     10.88495620	     55.42455001	      0.96734088	     16.68671858	    -19.51786096	      0.00000000	     -0.01156516	     -1.11166928	      1.42028582	     -0.02147766	     -1.47852014	      1.50905368	     -0.01900041	     -2.70291268	      1.50905368	     -0.01321783	     -2.70291268	      1.24275009	     -0.01073941	     -2.26691599	      1.15398223	     -0.00660833	     -1.72197571	      1.06521436	     -0.08260880	    -12.57542517	      7.89920364	      0.00000000	      0.00000000	    -14.37101881	     12.52599856	     -8.82959824	    -24.89809566	    -36.00575843	    -69.09045953	     90.52599151	     89.99559364	      0.00000000	      0.00000000	     -2.04969074	    -39.07304272	     -0.89662092	     27.66698253	     89.99559364	      0.00000000	      0.00000000
      0.48333333	    -23.67558712	      5.50967304	    -98.18221828	     -0.06886441	      0.95675250	     -1.07838730	     22.95804298	     -9.32746775	    -23.53342568	     47.57769367	      0.83038741	      6.29140742	     16.57497056	      0.00000000	     29.73084716	    -21.10974332	     13.16831424	     55.34700325	      0.96598744	     17.25015828	    -19.49012688	      0.00000000	     -0.01292419	     -1.12149834	      1.31011514	     -0.02400150	     -1.49159279	      1.39199733	     -0.02123314	     -2.72681106	      1.39199733	     -0.01477105	     -2.72681106	      1.14635075	     -0.01200140	     -2.28695941	      1.06446855	     -0.00738488	     -1.73720093	      0.98258635	     -0.09231616	    -12.68661350	      7.28646737	      0.00000000	      0.00000000	    -14.68542031	     12.55278779	     -9.50071066	    -28.17011599	    -35.67487283	    -72.09457402	     90.14419882	     89.99559364	      0.00000000	      0.00000000	     -0.63801570	    -39.20596679	     -1.78516063	     28.40193210	     89.99559364	      0.00000000	      0.00000000
      0.50000000	    -24.93885963	      5.53799214	    -95.16695554	     -0.06773363	      0.95490316	     -1.06885953	     22.03842589	    -10.67845415	    -25.69379080	     45.10215064	      0.78718103	      5.62102095	     17.26680713	      0.00000000	     30.39944092	    -21.02743858	     16.41806238	     55.26822373	      0.96461248	     17.86004487	    -19.47543741	      0.00000000	     -0.01343963	     -1.09213192	      0.97376243	     -0.02495873	     -1.45253546	      1.03462258	     -0.02207996	     -2.65540956	      1.03462258	     -0.01536015	     -2.65540956	      0.85204212	     -0.01248004	     -2.22707542	      0.79118197	     -0.00767940	     -1.69171235	      0.73032182	     -0.09599790	    -12.35441475	      5.41577449	      0.00000000	      0.00000000	    -15.21835108	     12.65227496	    -10.13081662	    -30.83038692	    -35.60628323	    -74.54715585	     89.81502611	     89.99559364	      0.00000000	      0.00000000	      0.36494179	    -39.51383168	     -2.18554591	     29.26411740	     89.99559364	      0.00000000	      0.00000000
      0.51666667	    -26.29295216	      5.47375210	    -92.25928703	     -0.06673855	      0.95291333	     -1.06045718	     21.04138080	    -11.74726062	    -27.68500932	     43.04229262	      0.75122972	      4.99198243	     17.74673163	      0.00000000	     31.10831199	    -21.16335569	     19.45360062	     55.25959789	      0.96446193	     18.53216518	    -19.44911069	      0.00000000	     -0.01481684	     -1.03986074	      0.55141890	     -0.02751635	     -1.38301478	      0.58588258	     -0.02434258	     -2.52831740	      0.58588258	     -0.01693416	     -2.52831740	      0.48249154	     -0.01375891	     -2.12048402	      0.44802786	     -0.00846634	     -1.61074428	      0.41356418	     -0.10583518	    -11.76311265	      3.06682650	      0.00000000	      0.00000000	    -15.80868211	     12.53360662	    -10.02195073	    -32.67311288	    -36.04347458	    -76.18187097	     89.88045333	     89.99559364	      0.00000000	      0.00000000	      0.81135241	    -40.09188808	     -1.92412869	     30.19573510	     89.99559364	      0.00000000	      0.00000000
      0.53333333	    -27.55042776	      5.21490369	    -90.28318312	     -0.06671133	      0.95144366	     -1.05295783	     20.05244379	    -12.47380868	    -28.89483581	     41.24783951	      0.71991061	      4.10475037	     18.15821266	      0.00000000	     31.35340676	    -21.76431073	     21.46457351	     55.31057224	      0.96535160	     19.22902541	    -19.43300316	      0.00000000	     -0.01550580	     -0.98412973	      0.14726680	     -0.02879583	     -1.30889254	      0.15647097	     -0.02547448	     -2.39281303	      0.15647097	     -0.01772158	     -2.39281303	      0.12885845	     -0.01439869	     -2.00683735	      0.11965427	     -0.00886002	     -1.52441695	      0.11045010	     -0.11075640	    -11.13267235	      0.81905374	      0.00000000	      0.00000000	    -16.55731358	     11.97185004	     -8.79974083	    -33.52900097	    -37.23748854	    -76.61972111	     90.29805543	     89.99559364	      0.00000000	      0.00000000	      0.23364421	    -41.08669733	     -1.19263692	     31.11736753	     89.99559364	      0.00000000	      0.00000000
      0.55000000	    -28.47528430	      4.72902019	    -89.61786382	     -0.06806283	      0.95093817	     -1.04605651	     19.20798750	    -13.00614845	    -28.92354647	     39.65425407	      0.69209730	      2.95379529	     18.42094110	      0.00000000	     30.76202072	    -22.80222202	     22.03098003	     55.28586546	      0.96492038	     19.87818108	    -19.40803233	      0.00000000	     -0.01804942	     -0.95225995	     -0.17199739	     -0.03351957	     -1.26650573	     -0.18274722	     -0.02965339	     -2.31532483	     -0.18274722	     -0.02062868	     -2.31532483	     -0.15049771	     -0.01676069	     -1.94184848	     -0.13974788	     -0.01031344	     -1.47505066	     -0.12899804	     -0.12892519	    -10.77215496	     -0.95659786	      0.00000000	      0.00000000	    -17.66371223	     10.65480962	     -5.65197383	    -33.28386645	    -39.01946098	    -75.91834538	     91.26605818	     89.99559364	      0.00000000	      0.00000000	     -1.62546586	    -42.45067671	     -0.50485811	     32.12213360	     89.99559364	      0.00000000	      0.00000000
      0.56666667	    -29.00685337	      4.14416900	    -90.13800388	     -0.07061029	      0.95124112	     -1.03965875	     18.59397678	    -13.55769550	    -28.17005606	     38.07791828	      0.66458505	      1.96244464	     18.55032911	      0.00000000	     29.48417925	    -24.07626985	     21.18533656	     55.32080497	      0.96553019	     20.54435100	    -19.37980966	      0.00000000	     -0.01820436	     -0.95629546	     -0.37910291	     -0.03380731	     -1.27187297	     -0.40279684	     -0.02990794	     -2.32513679	     -0.40279684	     -0.02080576	     -2.32513679	     -0.33171504	     -0.01690457	     -1.95007771	     -0.30802111	     -0.01040197	     -1.48130167	     -0.28432718	     -0.13003191	    -10.81780555	     -2.10845664	      0.00000000	      0.00000000	    -19.10006234	      8.72963503	      0.18164558	    -32.03715666	    -41.10755156	    -74.36867615	     92.49636088	     89.99559364	      0.00000000	      0.00000000	     -4.67874019	    -43.72741476	     -1.46851805	     33.05963134	     89.99559364	      0.00000000	      0.00000000
